<?xml version="1.0" standalone="no"?>
<!DOCTYPE svg PUBLIC "-//W3C//DTD SVG 20010904//EN"
 "http://www.w3.org/TR/2001/REC-SVG-20010904/DTD/svg10.dtd">
<svg version="1.0" xmlns="http://www.w3.org/2000/svg"
 width="902.000000pt" height="902.000000pt" viewBox="0 0 902.000000 902.000000"
 preserveAspectRatio="xMidYMid meet">
<metadata>
Created by potrace 1.14, written by Peter Selinger 2001-2017
</metadata>
<g transform="translate(0.000000,902.000000) scale(0.100000,-0.100000)"
fill="#000000" stroke="none">
<path d="M1808 9015 c-2 -3 -20 -7 -39 -9 -19 -3 -34 -5 -34 -6 0 -1 -7 -3
-15 -5 -137 -28 -296 -113 -414 -223 -25 -23 -46 -47 -46 -52 0 -6 -4 -10 -9
-10 -4 0 -26 -26 -48 -57 -89 -128 -127 -216 -162 -378 -8 -40 -7 -7451 1
-7492 5 -25 23 -90 33 -123 16 -52 92 -201 119 -235 112 -140 213 -225 336
-283 108 -51 129 -58 225 -77 74 -15 224 -20 275 -10 14 3 45 8 70 11 25 4 54
10 66 15 12 4 25 5 28 2 3 -4 6 -1 6 5 0 7 8 12 18 12 24 0 131 52 200 98 136
90 221 185 302 337 22 41 40 77 40 80 0 3 3 10 5 17 2 7 15 47 27 88 l23 75 2
3710 c1 2572 -1 3725 -8 3760 -6 28 -12 57 -13 65 -5 31 -28 105 -36 115 -4 6
-13 26 -19 46 -28 87 -169 266 -272 344 -39 30 -109 73 -149 92 -66 32 -140
62 -140 58 0 -2 -24 3 -52 12 -49 13 -310 28 -320 18z"/>
<path d="M6997 7134 c-2 -2 -20 -6 -41 -10 -87 -13 -129 -26 -196 -57 -25 -11
-51 -22 -59 -23 -27 -5 -168 -110 -226 -168 -67 -67 -125 -139 -125 -155 0 -5
-6 -16 -13 -23 -17 -17 -62 -114 -82 -175 -46 -143 -44 -20 -42 -2983 1 -1532
6 -2798 10 -2815 55 -204 151 -379 260 -474 10 -9 30 -26 43 -38 100 -91 265
-169 424 -201 43 -8 283 -9 310 -1 14 5 54 16 90 25 102 26 269 112 326 168 6
6 27 25 47 43 104 91 224 299 251 433 3 14 9 48 15 75 7 33 10 975 10 2825 l0
2775 -25 99 c-13 55 -28 104 -33 110 -4 6 -11 22 -14 36 -12 50 -109 191 -185
269 -47 49 -111 101 -163 134 -87 54 -233 110 -320 123 -46 7 -257 13 -262 8z"/>
<path d="M4428 5444 c-2 -2 -26 -5 -53 -8 -28 -3 -50 -5 -50 -6 0 -1 -7 -3
-15 -5 -8 -1 -51 -15 -95 -29 -183 -62 -339 -183 -451 -348 -40 -60 -90 -158
-100 -198 -2 -8 -10 -39 -18 -68 -9 -29 -18 -74 -22 -100 -9 -63 -10 -3792 -1
-3862 10 -76 9 -72 42 -165 9 -27 20 -60 22 -73 3 -12 9 -22 13 -22 4 0 10
-10 14 -23 14 -57 131 -205 221 -278 33 -27 66 -54 72 -59 48 -39 248 -122
333 -137 45 -8 284 -9 330 0 171 30 342 120 470 249 83 84 182 230 190 283 1
6 5 15 10 20 13 17 49 157 57 220 7 66 8 3726 0 3815 -9 116 -93 347 -144 398
-7 7 -13 17 -13 22 0 10 -161 174 -198 203 -80 61 -261 142 -342 153 -8 1 -31
5 -50 9 -36 7 -217 15 -222 9z"/>
</g>
</svg>
