<?xml version="1.0" encoding="UTF-8"?><svg id="a" xmlns="http://www.w3.org/2000/svg" viewBox="0 0 348.9 451.43"><rect x="0" y="0" width="89.56" height="449" rx="44.78" ry="44.78" style="fill:#db2878;"/><rect x="259.34" y="133.83" width="89.56" height="317.6" rx="44.78" ry="44.78" style="fill:#db2878;"/><path d="M304.12,451.43L182.08,74.27c-2.39-7.38-12.82-7.39-15.22-.02L44.78,449h39.43c3.24,0,6.16-1.95,7.39-4.95l43.08-104.27c1.24-2.99,4.16-4.95,7.39-4.95h71.13c3.41,0,6.44,2.16,7.56,5.38l36.7,105.84c1.12,3.22,4.15,5.38,7.56,5.38h39.09Zm-107.84-200.05h-42.57c-6.77,0-10.48-7.88-6.17-13.09l22.42-27.16c3.31-4.01,9.5-3.85,12.59,.33l20.15,27.16c3.92,5.28,.15,12.77-6.43,12.77Z" style="fill:#be195d;"/></svg>